<svg width="24" height="25" viewBox="0 0 24 25" fill="none" xmlns="http://www.w3.org/2000/svg">
<path d="M22.54 6.92C22.4212 6.44541 22.1792 6.01057 21.8386 5.65941C21.498 5.30824 21.0707 5.05318 20.6 4.92C18.88 4.5 12 4.5 12 4.5C12 4.5 5.11996 4.5 3.39996 4.96C2.92921 5.09318 2.50194 5.34824 2.16131 5.69941C1.82068 6.05057 1.57875 6.48541 1.45996 6.96C1.14518 8.70556 0.991197 10.4763 0.999961 12.25C0.988741 14.037 1.14273 15.8213 1.45996 17.58C1.59092 18.0398 1.83827 18.4581 2.17811 18.7945C2.51794 19.1308 2.93878 19.3738 3.39996 19.5C5.11996 19.96 12 19.96 12 19.96C12 19.96 18.88 19.96 20.6 19.5C21.0707 19.3668 21.498 19.1118 21.8386 18.7606C22.1792 18.4094 22.4212 17.9746 22.54 17.5C22.8523 15.7676 23.0063 14.0103 23 12.25C23.0112 10.463 22.8572 8.6787 22.54 6.92V6.92Z" stroke="#ED0000" stroke-width="2" stroke-linecap="round" stroke-linejoin="round"/>
<path d="M9.75 15.52L15.5 12.25L9.75 8.97998V15.52Z" stroke="#ED0000" stroke-width="2" stroke-linecap="round" stroke-linejoin="round"/>
</svg>
